<?xml version="1.0" encoding="utf-8"?><svg viewBox="0 0 502.66 502.66" xmlns="http://www.w3.org/2000/svg" xmlns:xlink="http://www.w3.org/1999/xlink"><style>:root>svg{display:none}:root>svg:target{display:block}</style><svg viewBox="0 0 40 30" id="b1" xmlns="http://www.w3.org/2000/svg"><path fill-rule="evenodd" clip-rule="evenodd" d="M33.717 27.732V6.829l2.98-2.957V7.66h2.285V0h-7.718v2.268h3.817l-3.956 3.927L25.797.907 13.002 13.608l-5.17-5.132-7.287 7.232 1.616 1.604 3.314-3.29v13.71H.096V30h39v-2.268h-5.379ZM27.624 5.928v21.804h-4.981V7.246l3.154-3.13 1.826 1.812ZM13.002 16.816l-1.433-1.422v12.338h4.98V13.294l-3.547 3.522Z"/></svg><svg viewBox="0 0 23 30" id="b2" xmlns="http://www.w3.org/2000/svg"><path d="M15.75 0h6.75v7.5h-6.75V0ZM0 0h6.75v7.5H0V0Z"/><ellipse cx="11.625" cy="21" rx="4.125" ry="3.75"/><path fill-rule="evenodd" clip-rule="evenodd" d="M2.25 21.375c0-4.763 4.03-8.625 9-8.625s9 3.862 9 8.625S16.22 30 11.25 30s-9-3.862-9-8.625Zm3.143 0c0 3.095 2.628 5.613 5.857 5.613 3.23 0 5.857-2.518 5.857-5.613 0-3.095-2.627-5.613-5.857-5.613-3.23 0-5.857 2.518-5.857 5.613Z"/><path d="M7.348 11.39a9.917 9.917 0 0 1 2.402-.713L8.14 9H1.5l3.602 3.75c.689-.55 1.44-1.005 2.246-1.36Zm5.402-.713a9.907 9.907 0 0 1 2.402.713c.806.355 1.557.81 2.246 1.36L21 9h-6.64l-1.61 1.677Z"/></svg><svg viewBox="0 0 22 30" id="b3" xmlns="http://www.w3.org/2000/svg"><path fill-rule="evenodd" clip-rule="evenodd" d="M5.425 20.104a5.538 5.538 0 0 1 5.532-5.532 5.538 5.538 0 0 1 5.532 5.532 5.538 5.538 0 0 1-5.532 5.532 5.538 5.538 0 0 1-5.532-5.532Zm1.697.66 2.738 2.738 4.931-4.932-1.242-1.243-3.69 3.689-1.494-1.494-1.243 1.243Z"/><path d="M16.577 3.423H14.38a3.423 3.423 0 0 0-6.846 0H5.337v4.388h11.24V3.423Z"/><path fill-rule="evenodd" clip-rule="evenodd" d="M18.335 9.57V3.422h3.539V30H.04V3.423h3.54V9.57h14.755ZM3.667 20.103c0 4.02 3.27 7.29 7.29 7.29s7.29-3.27 7.29-7.29-3.27-7.29-7.29-7.29-7.29 3.27-7.29 7.29Z"/></svg><svg viewBox="0 0 37 30" id="b4" xmlns="http://www.w3.org/2000/svg"><path d="M34.262 10.858h-7.384a3.972 3.972 0 0 0-3.971 3.972v11.193a3.972 3.972 0 0 0 3.971 3.972h8.286l1.4-16.634a2.31 2.31 0 0 0-2.302-2.503ZM18.935.005h-1.843l-.712 8.828a4.828 4.828 0 0 1-4.812 4.439h-1.384V27.58h4.691v.102a2.309 2.309 0 0 0 2.31 2.311h5.05a6.086 6.086 0 0 1-1.471-3.971V14.83a6.1 6.1 0 0 1 2.143-4.644v-6.21a3.972 3.972 0 0 0-3.972-3.97ZM0 11.837h8.04v17.178H0V11.838Z"/></svg><svg viewBox="0 0 502.664 502.664" xml:space="preserve" id="icon" xmlns="http://www.w3.org/2000/svg"><path d="M153.821 358.226 0 274.337v-46.463l153.821-83.414v54.574L46.636 250.523l107.185 53.431v54.272zm26.273 29.358L282.103 115.08h32.227L212.084 387.584h-31.99zm168.749-29.358v-54.272l107.164-52.999-107.164-52.59v-53.927l153.821 83.522v46.183l-153.821 84.083z"/></svg><svg viewBox="0 0 70 70" id="serve-1" xmlns="http://www.w3.org/2000/svg"><path fill-rule="evenodd" clip-rule="evenodd" d="m27.345 24.552-3.039 2.754c2.153 2.683 5.068 4.903 8.643 5.613v4.161h4.102v-3.877c3.905-.267 7.867-3.213 8.531-7.128.927-5.315-3.734-8.496-8.531-9.971V8.048c2.072.215 4.406 1.876 6.092 3.32l2.544-3.217c-2.357-2.189-6.19-4.174-8.636-4.238V.007h-4.102v4.136c-3.223.69-5.874 3.252-6.305 6.393-.392 4.509 1.715 6.747 6.305 8.341v9.812c-3.595-.967-5.604-4.137-5.604-4.137Zm3.356-13.412c.179-1.2 1.005-2.18 2.248-2.701v5.989c-2.298-.752-2.416-2.159-2.248-3.288Zm6.35 17.937c2.56-.37 4.493-2.065 4.493-3.723 0-3.345-4.006-4.695-4.456-4.847a2.033 2.033 0 0 1-.037-.013v8.583Zm25.889 27.4V48.97l.907.545 2.11-3.517-14.482-8.69-14.483 8.69 2.11 3.517.908-.545v7.507H29.99V48.97l.908.545 2.11-3.517-14.483-8.69-14.482 8.69 2.11 3.517.908-.545v7.507H0v4.102h70v-4.102h-7.06Zm-42.364 0v-5.01h-4.101v5.01h-5.313v-9.968l7.363-4.418 7.364 4.418v9.968h-5.313Zm32.95-5.01v5.01h5.312v-9.968l-7.363-4.418-7.364 4.418v9.968h5.313v-5.01h4.101Z"/><path d="M0 65.891h70v4.102H0V65.89Z"/></svg><svg viewBox="0 0 70 70" id="serve-2" xmlns="http://www.w3.org/2000/svg"><path fill-rule="evenodd" clip-rule="evenodd" d="M44.13 9.479H70v37.05H44.13V70H25.87V46.53H0V9.478h25.87v-4L35 0l9.13 5.478v4ZM35 4.783 29.972 7.8v1.679h10.056v-1.68L35 4.784Zm5.028 61.115H29.972V46.53h10.056v19.368ZM4.102 42.428h61.796V13.58H4.102v28.848Z"/><path fill-rule="evenodd" clip-rule="evenodd" d="m27.071 33.25-1.506 3.954-3.833-1.46 6.369-16.72 3.405-.004 6.314 16.732-3.837 1.449-1.491-3.95h-5.42Zm1.562-4.101h2.311l-1.15-3.048-1.16 3.048Z"/><path d="M48.262 32.51h-4.789V18.844h-4.102v17.767h8.891V32.51Zm12.182 0h-5.71v-2.675h5.29v-4.101h-5.29v-2.675h5.71v-4.102h-9.811v17.654h9.811V32.51Zm-46.022-9.442c1.546-.686 3.87.982 5.114 2.102l2.544-3.217c-3.736-3.418-6.87-3.444-8.862-2.806-1.985.6-3.393 2.169-3.682 4.11-.278 1.864.523 3.656 2.089 4.677.271.177 2.143.977 4.389 1.82.835.307 1.687.859 1.576 1.482-.092.514-.808 1.274-2.054 1.274-2.014.117-3.507-1.525-4.624-2.874l-3.039 2.755c1.877 2.4 4.426 4.288 7.663 4.22 3.048 0 5.61-1.957 6.091-4.654.365-2.043-.545-4.706-4.194-6.052a72.429 72.429 0 0 1-3.658-1.476c-.37-.463-.23-1.003.647-1.361Z"/></svg></svg>